# xmcd
#
# Track frame offsets:
#	150
#	21645
#	40481
#	55995
#	80497
#	112762
#	136792
#	168780
#	191415
#	215628
#	265230
#	298837
#	327753
#
# Disc length: 4764 seconds
#
# Revision: 0
# Processed by: cddbd v1.5.2PL0 Copyright (c) Steve Scherf et al.
# Submitted via: EasyCDDAExtractor 9.0.0.1
#
DISCID=bc129a0d
DTITLE=Aerosmith - First Midwest Bank Amphitheatre Tinley Park 05-10-06
DYEAR=2006
DGENRE=Hard Rock
TTITLE0=Toys In The Attic
TTITLE1=Mama Kin
TTITLE2=SOS (Too Bad)
TTITLE3=Cryin'
TTITLE4=Baby Please Don't Go
TTITLE5=Stop Messin' Around
TTITLE6=Seasons Of Wither
TTITLE7=Dream On
TTITLE8=Last Child
TTITLE9=Rattlesnake Shake
TTITLE10=Sweet Emotion
TTITLE11=Draw The Line
TTITLE12=Walk This Way
EXTD=
EXTT0=
EXTT1=
EXTT2=
EXTT3=
EXTT4=
EXTT5=
EXTT6=
EXTT7=
EXTT8=
EXTT9=
EXTT10=
EXTT11=
EXTT12=
PLAYORDER=
